<svg xmlns="http://www.w3.org/2000/svg" xml:space="preserve" width="200" height="200" data-id="lg_u8ytJwxtpPigcxsqNW" data-version="1" viewBox="0 0 2000 1500"><path fill="#00ffef" stroke="transparent" d="M0 0h2000v1500H0z"/><g data-padding="20"><g transform="translate(-223.768 32.815)scale(1.92809)"><filter id="a" width="140%" height="140%" x="-20%" y="-20%"><feGaussianBlur in="SourceAlpha"/><feOffset result="oBlur"/><feFlood flood-color="#465454" flood-opacity="1"/><feComposite in2="oBlur" operator="in"/><feMerge><feMergeNode/><feMergeNode in="SourceGraphic"/></feMerge></filter><g filter="url(#a)"><rect width="457.826" height="558.072" x="405.792" y="92.931" fill="none" rx="0" ry="0"/><path fill="#010c80" d="M435.445 525.657v-384.15l13.5-.6q13.51-.61 35.45-1.57 21.94-.97 47.75-1.81 25.8-.84 50.88-1.45 25.08-.6 44.13-.6 71.62 0 113.22 10.97 41.59 10.97 59.44 31.11 17.84 20.14 17.84 47.87 0 26.52-13.86 44.49-13.87 17.96-42.32 30.99 20.01 6.75 38.34 19.29t30.14 34.84q11.82 22.31 11.82 58.96 0 33.76-13.87 55.71-13.86 21.94-37.01 34.6t-51.61 18.57q-28.45 5.91-57.87 7.6t-55.47 1.69q-8.44 0-27.61-.49-19.17-.48-43.4-1.2-24.24-.73-48.35-1.69-24.12-.96-43.29-1.81-19.17-.84-27.85-1.32m150.71-270.57v62.7q20.5-7.96 39.43-17 18.93-9.05 30.99-20.86 12.06-11.82 12.06-27.98 0-10.61-8.08-15.67-8.08-5.07-16.28-5.07t-18.09 3.5q-9.88 3.5-18.81 8.08-8.92 4.58-14.83 8.2-5.9 3.62-6.39 4.1m95.26 121.78q0-11.1-6.88-15.68-6.87-4.58-17-4.58-10.85 0-24.35 5.55-13.51 5.54-26.05 12.54-12.54 6.99-20.98 11.09v60.77l12.54-4.82q25.08-9.41 43.65-17.73t28.82-19.29 10.25-27.85"/></g></g><path fill="transparent" stroke="transparent" stroke-width="2.016" d="M538.306 187.5h923.388v1125H538.306z"/></g></svg>